# xmcd CD database file
#
# Track frame offsets:
#	150
#	29856
#	60325
#	77093
#	99197
#	118102
#	134458
#	154982
#	172377
#	193448
#
# Disc length: 3009 seconds
#
# Revision: 0
# Processed by: cddbd v1.5.1PL0 Copyright (c) Steve Scherf et al.
# Submitted via: CDex 1.51
#
DISCID=920bbf0a
DTITLE=Fania All Stars Vol.1 - Fania All Stars Disc2
DYEAR=2005
DGENRE=Salsa
TTITLE0=Willie Colon-Ruben blades-Plastico
TTITLE1=Boby Cruz-Ricardo Ray-Sonido  bestial
TTITLE2=Justo Betancourt-Pa'bravo yo
TTITLE3=Sonora Ponceña-el pio pio
TTITLE4=Pete Rodriguez-Sonero
TTITLE5=Celia Cruz-Tito Puente-sabor gitano
TTITLE6=Ruben Blades-Ganas
TTITLE7=Johnny Pacheco-Que no muera el son
TTITLE8=Willie Colon-Hector Lavoe-Hace tiempo
TTITLE9=Fania All Stars-Quitate tu
EXTD=YEAR: 2005
EXTT0=
EXTT1=
EXTT2=
EXTT3=
EXTT4=
EXTT5=
EXTT6=
EXTT7=
EXTT8=
EXTT9=
PLAYORDER=
